<?xml version="1.0" encoding="UTF-8" standalone="no"?>
<svg
   xmlns:dc="http://purl.org/dc/elements/1.1/"
   xmlns:cc="http://creativecommons.org/ns#"
   xmlns:rdf="http://www.w3.org/1999/02/22-rdf-syntax-ns#"
   xmlns:svg="http://www.w3.org/2000/svg"
   xmlns="http://www.w3.org/2000/svg"
   xmlns:xlink="http://www.w3.org/1999/xlink"
   xmlns:sodipodi="http://sodipodi.sourceforge.net/DTD/sodipodi-0.dtd"
   xmlns:inkscape="http://www.inkscape.org/namespaces/inkscape"
   height="16"
   width="16"
   version="1.1"
   id="svg6"
   sodipodi:docname="go-marked-next.svg"
   inkscape:version="1.0.1 (c497b03c, 2020-09-10)">
  <sodipodi:namedview
     pagecolor="#ffffff"
     bordercolor="#666666"
     borderopacity="1"
     objecttolerance="10"
     gridtolerance="10"
     guidetolerance="10"
     inkscape:pageopacity="0"
     inkscape:pageshadow="2"
     inkscape:window-width="1209"
     inkscape:window-height="832"
     id="namedview31"
     showgrid="false"
     inkscape:zoom="39"
     inkscape:cx="8"
     inkscape:cy="8"
     inkscape:window-x="0"
     inkscape:window-y="25"
     inkscape:window-maximized="0"
     inkscape:current-layer="svg6" />
  <metadata
     id="metadata12">
    <rdf:RDF>
      <cc:Work
         rdf:about="">
        <dc:format>image/svg+xml</dc:format>
        <dc:type
           rdf:resource="http://purl.org/dc/dcmitype/StillImage" />
        <dc:title />
      </cc:Work>
    </rdf:RDF>
  </metadata>
  <defs
     id="defs10">
    <linearGradient
       xlink:href="#linearGradient971"
       id="linearGradient983-3-2"
       gradientUnits="userSpaceOnUse"
       gradientTransform="matrix(-0.61441293,0,0,0.61115825,7.6109629,-9.305476)"
       x1="-2.5213938"
       y1="22.402153"
       x2="-2.5213938"
       y2="35.268829" />
    <linearGradient
       id="linearGradient971">
      <stop
         id="stop963"
         style="stop-color:#ffffff;stop-opacity:1"
         offset="0" />
      <stop
         id="stop965"
         style="stop-color:#ffffff;stop-opacity:0.23529412"
         offset="0.51999998" />
      <stop
         id="stop967"
         style="stop-color:#ffffff;stop-opacity:0.15686275"
         offset="0.51999998" />
      <stop
         id="stop969"
         style="stop-color:#ffffff;stop-opacity:0.39215687"
         offset="1" />
    </linearGradient>
    <linearGradient
       xlink:href="#linearGradient1019"
       id="linearGradient1009"
       gradientUnits="userSpaceOnUse"
       gradientTransform="matrix(-0.52743574,0,0,0.33333554,7.6541397,-1.5572946)"
       x1="5.0321598"
       y1="28.671694"
       x2="5.0321598"
       y2="29.671688" />
    <linearGradient
       id="linearGradient1019">
      <stop
         offset="0"
         style="stop-color:#ffffff;stop-opacity:1"
         id="stop1011" />
      <stop
         offset="0.00000019"
         style="stop-color:#ffffff;stop-opacity:0.23529412"
         id="stop1013" />
      <stop
         offset="1"
         style="stop-color:#ffffff;stop-opacity:0.39215687"
         id="stop1017" />
    </linearGradient>
    <linearGradient
       xlink:href="#linearGradient78"
       id="linearGradient72"
       gradientUnits="userSpaceOnUse"
       gradientTransform="matrix(0.61157583,0,0,0.6008607,2.970838,1.3887711)"
       x1="12"
       y1="4"
       x2="12"
       y2="19.998161" />
    <linearGradient
       id="linearGradient78">
      <stop
         style="stop-color:#9bdb4d;stop-opacity:1"
         offset="0"
         id="stop74" />
      <stop
         style="stop-color:#68b723;stop-opacity:1"
         offset="1"
         id="stop76" />
    </linearGradient>
  </defs>
  <path
     d="M 8.5,8.500002 H 3.499998 V 7.499998 H 8.5"
     style="font-variation-settings:normal;opacity:0.6;vector-effect:none;fill:none;fill-opacity:1;stroke:url(#linearGradient1009);stroke-width:1;stroke-linecap:butt;stroke-linejoin:miter;stroke-miterlimit:4;stroke-dasharray:none;stroke-dashoffset:0;stroke-opacity:1;marker:none;marker-start:none;marker-mid:none;marker-end:none;stop-color:#000000"
     id="rect1007" />
  <path
     d="m 8.5,8.5224087 c 0.5059188,1.637e-4 0.9998361,0.545123 1,1.0506969 V 10.553808 L 12.173407,8 9.5,5.3938097 v 0.9752625 c -1.639e-4,0.5055734 -0.4940812,1.1066704 -1,1.1068342"
     style="font-variation-settings:normal;opacity:0.5;vector-effect:none;fill:none;fill-opacity:1;stroke:url(#linearGradient983-3-2);stroke-width:0.999996;stroke-linecap:butt;stroke-linejoin:miter;stroke-miterlimit:4;stroke-dasharray:none;stroke-dashoffset:0;stroke-opacity:1;marker:none;marker-start:none;marker-mid:none;marker-end:none;stop-color:#000000"
     id="path873-5-5-2-6-1" />
  <g
     id="g2124"
     transform="translate(-0.29141585)">
    <path
       id="path873-5-5"
       style="font-variation-settings:normal;opacity:1;vector-effect:none;fill:url(#linearGradient72);fill-opacity:1;stroke:#206b00;stroke-width:0.999997;stroke-linecap:round;stroke-linejoin:round;stroke-miterlimit:4;stroke-dasharray:none;stroke-dashoffset:0;stroke-opacity:0.5;stop-color:#000000;stop-opacity:1"
       d="m 10.830467,3.499998 c 0.184576,0 0.177655,0.076034 0.241285,0.103267 l 4.339857,4.1884254 c 0.05559,0.054667 0.08839,0.128648 0.08839,0.2100663 0,0.080838 -0.03281,0.1507369 -0.08839,0.2088935 l -4.33986,4.1884268 c -0.05944,0.06222 -0.141974,0.100925 -0.241286,0.100925 -0.184522,0 -0.32251,-0.12948 -0.32251,-0.303951 V 9.7996488 c 1.16e-4,-0.1628379 -0.1454,-0.299258 -0.323705,-0.299258 H 4.805785 c -0.174818,0 -0.305788,-0.1286748 -0.305788,-0.3004302 V 6.7965171 c 0,-0.1717556 0.13097,-0.3004304 0.305788,-0.3004304 h 5.408328 c 0.16368,-0.015028 0.293952,-0.1448483 0.293843,-0.2980816 v -2.397575 c 0,-0.1744694 0.137988,-0.3004321 0.322511,-0.3004321 z" />
    <g
       transform="matrix(-0.5,0,0,0.5,274.829,9.389998)"
       id="g1498">
      <path
         style="fill:#f2c245;fill-opacity:1;stroke:#686868;stroke-opacity:1"
         d="m 535,1 h 1 v 1 h 1 v 1 h -2 z"
         id="path2099" />
      <path
         style="fill:#f2c245;fill-opacity:1;stroke:#ad5f00;stroke-opacity:1"
         d="m 542.658,-7.78 -8.666,8.668 v 3.119 h 3.121 l 8.665,-8.664 z"
         id="path2097" />
      <path
         style="fill:#f69cb7;fill-opacity:1;stroke:#d0417d;stroke-opacity:1"
         d="m 545.213,-10 a 0.83,0.83 0 0 0 -0.59,0.246 l -0.906,0.912 3.125,3.125 0.91,-0.906 c 0.33,-0.33 0.33,-0.85 0,-1.18 l -1.95,-1.95 A 0.83,0.83 0 0 0 545.213,-10 Z"
         id="path1496" />
      <path
         style="fill:none;stroke:#000000;stroke-width:1;stroke-linecap:butt;stroke-linejoin:round;stroke-miterlimit:4;stroke-dasharray:none;stroke-opacity:1"
         d="m 533.992,4.007 -1.04489,0.957823"
         id="path2116"
         sodipodi:nodetypes="cc" />
    </g>
  </g>
</svg>
