<?xml version="1.0" encoding="UTF-8" standalone="no"?>
<svg
   xmlns:dc="http://purl.org/dc/elements/1.1/"
   xmlns:cc="http://creativecommons.org/ns#"
   xmlns:rdf="http://www.w3.org/1999/02/22-rdf-syntax-ns#"
   xmlns:svg="http://www.w3.org/2000/svg"
   xmlns="http://www.w3.org/2000/svg"
   version="1.1"
   width="512"
   viewBox="0 0 512 511.99999"
   height="512"
   enable-background="new 0 0 512 512"
   id="Capa_1">
  <metadata
     id="metadata915">
    <rdf:RDF>
      <cc:Work
         rdf:about="">
        <dc:format>image/svg+xml</dc:format>
        <dc:type
           rdf:resource="http://purl.org/dc/dcmitype/StillImage" />
        <dc:title></dc:title>
      </cc:Work>
    </rdf:RDF>
  </metadata>
  <defs
     id="defs913">
    <marker
       style="overflow:visible"
       id="Arrow1Send"
       refX="0"
       refY="0"
       orient="auto">
      <path
         transform="matrix(-0.2,0,0,-0.2,-1.2,0)"
         style="fill:#000000;fill-opacity:1;fill-rule:evenodd;stroke:#000000;stroke-width:1pt;stroke-opacity:1"
         d="M 0,0 5,-5 -12.5,0 5,5 Z"
         id="path1369" />
    </marker>
    <marker
       style="overflow:visible"
       id="Arrow1Sstart"
       refX="0"
       refY="0"
       orient="auto">
      <path
         transform="matrix(0.2,0,0,0.2,1.2,0)"
         style="fill:#000000;fill-opacity:1;fill-rule:evenodd;stroke:#000000;stroke-width:1pt;stroke-opacity:1"
         d="M 0,0 5,-5 -12.5,0 5,5 Z"
         id="path1366" />
    </marker>
    <marker
       style="overflow:visible"
       id="Arrow1Lend"
       refX="0"
       refY="0"
       orient="auto">
      <path
         transform="matrix(-0.8,0,0,-0.8,-10,0)"
         style="fill:#000000;fill-opacity:1;fill-rule:evenodd;stroke:#000000;stroke-width:1pt;stroke-opacity:1"
         d="M 0,0 5,-5 -12.5,0 5,5 Z"
         id="path1357" />
    </marker>
    <marker
       style="overflow:visible"
       id="Arrow1Lstart"
       refX="0"
       refY="0"
       orient="auto">
      <path
         transform="matrix(0.8,0,0,0.8,10,0)"
         style="fill:#000000;fill-opacity:1;fill-rule:evenodd;stroke:#000000;stroke-width:1pt;stroke-opacity:1"
         d="M 0,0 5,-5 -12.5,0 5,5 Z"
         id="path1354" />
    </marker>
  </defs>
  <g
     id="g908"
     transform="translate(-3.54804,-94.39728)">
    <g
       transform="translate(561.76392,-494.32227)"
       id="g1238">
      <g
         transform="translate(107.28509,346.61337)"
         id="g1350">
        <g
           transform="translate(7.999995,79.999985)"
           id="g1130">
          <path
             d="m -401.76096,266.10618 h -175.74 c -4.41828,0 -8,3.58172 -8,8 V 562.1062 c 0,4.4183 3.58172,8 8,8 h 376 c 4.41828,0 8,-3.5817 8,-8 V 274.10618 c 0,-4.41828 -3.58172,-8 -8,-8 h -109.74 m 0,0 8,-8 m 0,0 h 101.74 c 8.83176,0.0116 15.98843,7.16824 16,16 V 562.1062 c -0.0116,8.8317 -7.16824,15.9884 -16,16 h -432.00001 c -8.83176,-0.012 -15.98843,-7.1683 -16,-16 V 274.10618 c 0.0116,-8.83176 7.16824,-15.98843 16,-16 h 239.74001"
             id="path1212-3-2"
             style="fill:#e3dbdb;fill-opacity:1;stroke-width:10;stroke-miterlimit:4;stroke-dasharray:none" />
          <circle
             style="stroke-width:10;stroke-miterlimit:4;stroke-dasharray:none"
             id="circle904"
             r="7.5"
             cy="363.15616"
             cx="-370.25098" />
          <circle
             style="stroke-width:10;stroke-miterlimit:4;stroke-dasharray:none"
             id="circle906"
             r="7.5"
             cy="363.15616"
             cx="-400.25098" />
          <path
             style="stroke-width:10;stroke-miterlimit:4;stroke-dasharray:none"
             id="path1212-3"
             d="m -201.50096,242.10618 h -85.74 -90.52 -255.74001 c -17.66488,0.0198 -31.98016,14.33511 -32,32 v 288.00003 c 0.0198,17.6649 14.33512,31.9801 32,32 h 432.00001 c 17.66489,-0.02 31.98016,-14.3351 32,-32 V 274.10618 c -0.0198,-17.66489 -14.33511,-31.98016 -32,-32 z m -8,40 v 272.00003 h -360 V 282.10618 Z m -192.26,-16 h -175.74 c -4.41828,0 -8,3.58172 -8,8 v 288.00003 c 0,4.4183 3.58172,8 8,8 h 376 c 4.41828,0 8,-3.5817 8,-8 V 274.10618 c 0,-4.41828 -3.58172,-8 -8,-8 h -109.74 m 0,0 8,-8 m 0,0 h 101.74 c 8.83176,0.0116 15.98843,7.16824 16,16 v 288.00003 c -0.0116,8.8317 -7.16824,15.9884 -16,16 h -432.00001 c -8.83176,-0.012 -15.98843,-7.1683 -16,-16 V 274.10618 c 0.0116,-8.83176 7.16824,-15.98843 16,-16 h 239.74001" />
          <path
             id="path1308"
             d="M -569.35448,418.1603 V 282.58687 h 179.92459 179.92455 V 418.1603 553.73371 h -179.92455 -179.92459 z"
             style="fill:#ffffff;fill-opacity:1;stroke:none;stroke-width:10;stroke-miterlimit:4;stroke-dasharray:none" />
          <g
             style="stroke-width:10;stroke-miterlimit:4;stroke-dasharray:none"
             transform="translate(-673.50096,122.10618)"
             id="g1325">
            <path
               style="stroke-width:10;stroke-miterlimit:4;stroke-dasharray:none"
               id="path1214"
               d="m 56,272 a 24,24 0 1 0 24,24 24.027,24.027 0 0 0 -24,-24 z m 0,32 a 8,8 0 1 1 8,-8 8.009,8.009 0 0 1 -8,8 z" />
            <path
               style="stroke-width:10;stroke-miterlimit:4;stroke-dasharray:none"
               id="path1216"
               d="m 48,256 h 16 a 8,8 0 0 0 0,-16 H 48 a 8,8 0 0 0 0,16 z" />
            <path
               style="stroke-width:10;stroke-miterlimit:4;stroke-dasharray:none"
               id="path1218"
               d="m 48,224 h 16 a 8,8 0 0 0 0,-16 H 48 a 8,8 0 0 0 0,16 z" />
            <path
               style="stroke-width:10;stroke-miterlimit:4;stroke-dasharray:none"
               id="path1220"
               d="m 48,192 h 16 a 8,8 0 0 0 0,-16 H 48 a 8,8 0 0 0 0,16 z" />
            <path
               style="stroke-width:10;stroke-miterlimit:4;stroke-dasharray:none"
               id="path1222"
               d="M 64,400 H 48 a 8,8 0 0 0 0,16 h 16 a 8,8 0 0 0 0,-16 z" />
            <path
               style="stroke-width:10;stroke-miterlimit:4;stroke-dasharray:none"
               id="path1224"
               d="M 64,368 H 48 a 8,8 0 0 0 0,16 h 16 a 8,8 0 0 0 0,-16 z" />
            <path
               style="stroke-width:10;stroke-miterlimit:4;stroke-dasharray:none"
               id="path1226"
               d="M 64,336 H 48 a 8,8 0 0 0 0,16 h 16 a 8,8 0 0 0 0,-16 z" />
          </g>
          <path
             style="fill:#000000;stroke-width:0.666667"
             d="m -533.94585,498.62223 c 0.7628,-7.9875 11.70405,-9.51292 13.33334,-16.12936 0,-18.57898 0,-37.15797 0,-55.73692 -6.08241,-4.08816 -18.06412,-9.44799 -9.33334,-17.28537 7.21558,-4.07346 17.09963,-5.9272 25.47226,-10.88401 6.87985,-4.03185 10.631,-7.18693 18.49428,-7.07993 0.75936,7.61095 -0.20077,20.16847 8.19173,9.53533 5.92439,-9.70699 19.67983,-11.47317 29.0456,-6.95724 13.55784,0.57702 -1.41058,18.10881 -0.94431,25.90235 -0.4812,15.55446 -14.19027,4.94937 -22.87016,3.29768 -6.93075,-1.39238 -15.22307,2.2221 -12.69636,10.0357 0.10231,16.70234 0.20466,33.40464 0.30698,50.10698 4.83256,3.99329 12.35405,5.75161 15.98118,9.41567 6.5904,-3.38279 6.99204,9.23962 1.7023,8.40113 -22.22772,0 -44.45544,0 -66.68316,0 -1.1e-4,-0.87401 -2.3e-4,-1.74803 -3.4e-4,-2.62201 z m 88.00001,1.62203 c -3.4873,-7.96063 12.52591,-10.52501 14.99366,-18.13482 2.89564,-10.29657 0.84672,-21.70133 1.61938,-32.42279 0.0963,-28.04096 0.037,-56.08222 0.0536,-84.12329 -3.7328,-6.19158 -9.04995,-10.70445 -12.02119,-16.97949 -5.21493,-7.21444 -0.80108,-10.17948 5.97177,-8.67296 13.57857,0 27.15713,0 40.7357,0 6.27786,10.45289 11.08738,22.12286 17.9804,31.99019 3.77349,10.78276 10.60998,15.6237 13.2482,26.35291 4.03875,9.12899 9.76901,18.81369 14.80205,26.32357 1.61873,4.63476 4.45586,14.03781 7.08519,3.27016 3.34294,-8.94047 9.08197,-17.61293 13.67682,-26.46568 2.76257,-8.67553 7.85118,-15.51799 12.8387,-24.22232 4.71404,-9.21161 8.14263,-17.99531 13.66784,-26.52854 2.72776,-3.16206 2.95895,-10.38629 7.42306,-10.72029 16.19716,0 32.39433,0 48.59148,0 1.18271,8.34637 -5.9312,10.50732 -9.70575,15.33336 -6.10351,1.34736 -7.0812,6.28921 -6.29424,11.51115 0.1649,37.2881 -0.42943,74.59162 0.47184,111.86729 1.53021,9.28396 15.37909,11.90759 16.19481,21.40388 -1.42017,2.74016 -7.84068,0.47996 -11.26329,1.21765 -20.91224,0 -41.82448,0 -62.7367,0 -0.56663,-8.66388 8.61346,-12.61848 14.2451,-17.36742 4.34894,-2.39433 1.70161,-7.98417 2.42157,-12.03606 -0.16646,-24.86316 0.47619,-49.76726 -0.63405,-74.59649 -5.65354,8.13724 -6.84342,15.82133 -13.10222,23.22157 -3.72689,10.34418 -8.70723,17.24711 -14.64808,27.16992 -5.51491,11.32309 -11.33665,21.76547 -16.949,32.77146 -2.17866,5.2806 -6.95318,12.37965 -13.30557,8.58247 -5.64244,-10.78783 -11.11639,-21.80757 -17.36989,-32.15229 -5.38948,-12.24688 -11.68552,-24.21891 -18.91703,-35.47536 -3.4316,-7.26425 -7.991,-20.18128 -12.63758,-23.91704 -0.70138,28.03725 -0.29858,56.08872 -0.37561,84.13258 4.44747,3.96582 9.21362,8.05679 13.93903,11.28496 6.28413,5.59079 3.17326,10.3169 -3.95469,8.3817 -15.27764,-0.24718 -30.6646,0.65216 -45.85347,-0.70662 l -0.19185,-0.29329 z"
             id="path47" />
        </g>
      </g>
    </g>
  </g>
</svg>
