<?xml version="1.0" encoding="UTF-8" standalone="no"?>
<svg
   xmlns:dc="http://purl.org/dc/elements/1.1/"
   xmlns:cc="http://creativecommons.org/ns#"
   xmlns:rdf="http://www.w3.org/1999/02/22-rdf-syntax-ns#"
   xmlns:svg="http://www.w3.org/2000/svg"
   xmlns="http://www.w3.org/2000/svg"
   id="svg864"
   version="1.1"
   viewBox="0 0 114.56313 114.56313"
   height="114.56313mm"
   width="114.56313mm">
  <defs
     id="defs858" />
  <metadata
     id="metadata861">
    <rdf:RDF>
      <cc:Work
         rdf:about="">
        <dc:format>image/svg+xml</dc:format>
        <dc:type
           rdf:resource="http://purl.org/dc/dcmitype/StillImage" />
        <dc:title></dc:title>
      </cc:Work>
    </rdf:RDF>
  </metadata>
  <g
     transform="translate(16.460141,-140.02201)"
     id="layer1">
    <circle
       r="55.958652"
       cy="197.30357"
       cx="40.821426"
       id="path935"
       style="fill:#000000;stroke:#000000;stroke-width:2.64583" />
    <path
       style="fill:#ffffff;stroke-width:0.176389"
       d="m 2.5450416,217.945 c 0.2018241,-2.11336 3.0966966,-2.51696 3.5277795,-4.26756 0,-4.91569 0,-9.83138 0,-14.74706 -1.6093043,-1.08166 -4.779464,-2.49978 -2.4694462,-4.57342 1.9091222,-1.07777 4.5242771,-1.56824 6.7395351,-2.87973 1.820294,-1.06676 2.812786,-1.90154 4.893279,-1.87323 0.200914,2.01373 -0.05312,5.33624 2.167395,2.52289 1.567495,-2.56831 5.206955,-3.03561 7.684982,-1.84077 3.587178,0.15267 -0.373216,4.79129 -0.249849,6.85333 -0.127317,4.11545 -3.754509,1.30952 -6.051063,0.87251 -1.833761,-0.3684 -4.027771,0.58793 -3.359245,2.65528 0.02707,4.41916 0.05415,8.83831 0.08122,13.25747 1.278615,1.05656 3.268676,1.52178 4.228356,2.49123 1.74371,-0.89503 1.849975,2.44465 0.450398,2.2228 -5.881084,0 -11.7621662,0 -17.6432505,0 -3.01e-5,-0.23125 -6.18e-5,-0.4625 -9.09e-5,-0.69374 z m 23.2833364,0.42916 c -0.922681,-2.10625 3.314147,-2.78474 3.967073,-4.79817 0.766138,-2.7243 0.224028,-5.74181 0.42846,-8.57853 0.02548,-7.41917 0.0098,-14.83842 0.01418,-22.25762 -0.987637,-1.63819 -2.394466,-2.83222 -3.180607,-4.49249 -1.379784,-1.90882 -0.211952,-2.69332 1.580031,-2.29472 3.592663,0 7.185324,0 10.777987,0 1.661017,2.76566 2.933536,5.85334 4.757314,8.46407 0.998403,2.85294 2.807224,4.13377 3.505253,6.97254 1.068586,2.41538 2.584717,4.97779 3.916376,6.96478 0.428289,1.22628 1.178944,3.71417 1.874623,0.86523 0.884486,-2.3655 2.402938,-4.66009 3.618659,-7.00238 0.73093,-2.2954 2.077291,-4.1058 3.396906,-6.40882 1.247256,-2.43724 2.154404,-4.76126 3.616282,-7.01901 0.721718,-0.83663 0.782889,-2.74804 1.964018,-2.83641 4.285499,0 8.570998,0 12.856496,0 0.312925,2.20831 -1.569299,2.78006 -2.567982,4.05695 -1.614887,0.35649 -1.873565,1.66402 -1.665351,3.04566 0.04363,9.86581 -0.113618,19.7357 0.124843,29.59822 0.404868,2.45638 4.069051,3.15055 4.284877,5.66311 -0.375753,0.725 -2.074513,0.12699 -2.980081,0.32217 -5.53303,0 -11.066058,0 -16.599085,0 -0.149919,-2.29232 2.278978,-3.33864 3.769018,-4.59513 1.150655,-0.6335 0.450218,-2.11248 0.640705,-3.18454 -0.04404,-6.57838 0.125992,-13.16759 -0.167757,-19.73699 -1.495832,2.15298 -1.810655,4.18606 -3.466631,6.14404 -0.986071,2.7369 -2.303786,4.5633 -3.875636,7.18871 -1.459153,2.9959 -2.999488,5.75878 -4.484423,8.67078 -0.576437,1.39716 -1.839695,3.27545 -3.520432,2.27078 -1.492895,-2.85428 -2.941211,-5.76992 -4.595783,-8.50696 -1.425967,-3.24032 -3.091794,-6.40792 -5.005131,-9.38619 -0.907944,-1.922 -2.114285,-5.33963 -3.343693,-6.32805 -0.185573,7.41819 -0.079,14.84014 -0.09938,22.26008 1.176726,1.04929 2.43777,2.13169 3.688035,2.98581 1.662676,1.47923 0.839592,2.72968 -1.046345,2.21766 -4.042209,-0.0654 -8.113342,0.17255 -12.132064,-0.18696 l -0.05076,-0.0776 z"
       id="path47" />
  </g>
</svg>
