<?xml version="1.0" encoding="UTF-8" standalone="no"?>
<svg
   xmlns:dc="http://purl.org/dc/elements/1.1/"
   xmlns:cc="http://creativecommons.org/ns#"
   xmlns:rdf="http://www.w3.org/1999/02/22-rdf-syntax-ns#"
   xmlns:svg="http://www.w3.org/2000/svg"
   xmlns="http://www.w3.org/2000/svg"
   xmlns:xlink="http://www.w3.org/1999/xlink"
   id="svg3172"
   height="128"
   width="128"
   version="1.1">
  <defs
     id="defs3174">
    <linearGradient
       id="linearGradient3600">
      <stop
         offset="0"
         style="stop-color:#f4f4f4;stop-opacity:1"
         id="stop3602" />
      <stop
         offset="1"
         style="stop-color:#dbdbdb;stop-opacity:1"
         id="stop3604" />
    </linearGradient>
    <linearGradient
       id="linearGradient3702-501-757-486">
      <stop
         offset="0"
         style="stop-color:#181818;stop-opacity:0"
         id="stop3100" />
      <stop
         offset="0.5"
         style="stop-color:#181818;stop-opacity:1"
         id="stop3102" />
      <stop
         offset="1"
         style="stop-color:#181818;stop-opacity:0"
         id="stop3104" />
    </linearGradient>
    <linearGradient
       id="linearGradient3688-464-309-255">
      <stop
         offset="0"
         style="stop-color:#181818;stop-opacity:1"
         id="stop3094" />
      <stop
         offset="1"
         style="stop-color:#181818;stop-opacity:0"
         id="stop3096" />
    </linearGradient>
    <linearGradient
       gradientTransform="matrix(2.6285655,0,0,2.5204893,0.914429,-4.3579715)"
       gradientUnits="userSpaceOnUse"
       xlink:href="#linearGradient3600"
       id="linearGradient3019-2"
       y2="47.013336"
       x2="25.132275"
       y1="0.98520643"
       x1="25.132275" />
    <linearGradient
       gradientTransform="matrix(2.4594595,0,0,3.1081081,4.9729852,-14.594554)"
       gradientUnits="userSpaceOnUse"
       xlink:href="#linearGradient3977-3"
       id="linearGradient3016-9"
       y2="42.339119"
       x2="23.99999"
       y1="5.6608567"
       x1="23.99999" />
    <linearGradient
       id="linearGradient3977-3">
      <stop
         offset="0"
         style="stop-color:#ffffff;stop-opacity:1"
         id="stop3979-6" />
      <stop
         offset="0"
         style="stop-color:#ffffff;stop-opacity:0.23529412"
         id="stop3981-0" />
      <stop
         offset="0.99999994"
         style="stop-color:#ffffff;stop-opacity:0.15686275"
         id="stop3983-6" />
      <stop
         offset="1"
         style="stop-color:#ffffff;stop-opacity:0.39215687"
         id="stop3985-2" />
    </linearGradient>
    <linearGradient
       gradientTransform="matrix(2.1456297,0,0,2.3791292,158.08983,-7.746462)"
       gradientUnits="userSpaceOnUse"
       xlink:href="#linearGradient3104-6"
       id="linearGradient3148"
       y2="2.9062471"
       x2="-51.786404"
       y1="50.786446"
       x1="-51.786404" />
    <linearGradient
       id="linearGradient3104-6">
      <stop
         offset="0"
         style="stop-color:#000000;stop-opacity:0.31782946"
         id="stop3106-3" />
      <stop
         offset="1"
         style="stop-color:#000000;stop-opacity:0.24031007"
         id="stop3108-9" />
    </linearGradient>
    <linearGradient
       gradientTransform="matrix(2.8421052,0,0,0.71428566,-4.2105336,87.430066)"
       x1="25.058096"
       y1="47.027729"
       x2="25.058096"
       y2="39.999443"
       id="linearGradient4097"
       xlink:href="#linearGradient3702-501-757-486"
       gradientUnits="userSpaceOnUse" />
    <radialGradient
       cx="4.9929786"
       cy="43.5"
       r="2.5"
       fx="4.9929786"
       fy="43.5"
       id="radialGradient4095"
       xlink:href="#linearGradient3688-464-309-255"
       gradientUnits="userSpaceOnUse"
       gradientTransform="matrix(5.6949649,0,0,0.99999992,-52.665305,-162.00149)" />
    <radialGradient
       cx="4.9929786"
       cy="43.5"
       r="2.5"
       fx="4.9929786"
       fy="43.5"
       id="radialGradient4093"
       xlink:href="#linearGradient3688-464-309-255"
       gradientUnits="userSpaceOnUse"
       gradientTransform="matrix(5.6949649,0,0,0.99999992,75.334676,75.001496)" />
  </defs>
  <metadata
     id="metadata3177">
    <rdf:RDF>
      <cc:Work
         rdf:about="">
        <dc:format>image/svg+xml</dc:format>
        <dc:type
           rdf:resource="http://purl.org/dc/dcmitype/StillImage" />
        <dc:title></dc:title>
      </cc:Work>
    </rdf:RDF>
  </metadata>
  <g
     transform="matrix(0.92592591,0,0,1,4.7407489,0)"
     style="opacity:0.2;stroke-width:1.03923047"
     id="g978">
    <rect
       width="14.210526"
       height="4.9999995"
       x="103.78947"
       y="116.00149"
       id="rect2801"
       style="fill:url(#radialGradient4093);fill-opacity:1;stroke:none;stroke-width:1.48070288" />
    <rect
       width="14.210526"
       height="4.9999995"
       x="-24.210518"
       y="-121.00149"
       transform="scale(-1)"
       id="rect3696"
       style="fill:url(#radialGradient4095);fill-opacity:1;stroke:none;stroke-width:1.48070288" />
    <rect
       width="79.578949"
       height="5"
       x="24.210518"
       y="116.00149"
       id="rect3700"
       style="fill:url(#linearGradient4097);fill-opacity:1;stroke:none;stroke-width:1.48070288" />
  </g>
  <path
     style="display:inline;fill:url(#linearGradient3019-2);fill-opacity:1;stroke:none"
     id="path4160"
     d="m 18,2.0004521 c 21.081878,0 91.99989,0.00694 91.99989,0.00694 L 110,118 c 0,0 -61.333339,0 -91.999999,0 0,-38.666664 0,-77.33333 0,-115.999995 z" />
  <path
     style="fill:none;stroke:url(#linearGradient3016-9);stroke-width:1;stroke-linecap:round;stroke-linejoin:round;stroke-miterlimit:4;stroke-dasharray:none;stroke-dashoffset:0;stroke-opacity:1"
     id="rect6741-1"
     d="m 109.5,117.5 h -91 V 2.500002 h 91 z" />
  <path
     style="display:inline;fill:none;stroke:url(#linearGradient3148);stroke-width:0.99999994;stroke-linecap:butt;stroke-linejoin:round;stroke-miterlimit:4;stroke-dasharray:none;stroke-dashoffset:0;stroke-opacity:1"
     id="path4160-6-1"
     d="m 17.500001,1.49999 c 21.311001,0 92.999899,0.008 92.999899,0.008 l 1e-4,116.99202 c 0,0 -61.999997,0 -92.999999,0 0,-39.000096 0,-77.999807 0,-116.999456 z" />
  <g
     id="g3396"
     transform="matrix(3.6658426,0,0,-3.6658426,-2328.2207,1533.6807)"
     style="stroke-width:0.64408547">
    <g
       id="g3398"
       transform="matrix(-0.03355778,-0.09420125,0.09420125,-0.03355778,493.59518,1152.15)"
       style="stroke-width:0.644085;fill:#808080">
      <path
         d="m 6508.671,3982.17 c 1.6486,-6.0987 1.4678,-11.7858 -0.2351,-16.9362 -0.1892,-0.5719 -0.3976,-1.1379 -0.6238,-1.6972 -0.2262,-0.5583 -0.4711,-1.1105 -0.7336,-1.6555 -1.3135,-2.725 -3.0759,-5.2756 -5.2342,-7.6298 -6.5842,-7.183 -15.7833,-9.8993 -19.7279,-7.6105 -4.2595,2.4688 -2.1259,12.5965 5.5078,20.6654 8.2125,8.6819 20.0284,14.2635 20.0284,14.2635 l -0.018,0.035 c 0.3403,0.1832 0.6862,0.3717 1.0364,0.5648 z m 93.6027,102.5652 c -5.1316,20.126 -38.503,26.7421 -70.087,15.5213 -18.7962,-6.6773 -39.1446,-17.1579 -53.7754,-30.8434 -17.3961,-16.2713 -20.1703,-30.4333 -19.0268,-36.351 4.0332,-20.8806 32.6439,-34.5292 44.4052,-44.6556 v -0.061 c -3.468,-1.7073 -28.8514,-14.5531 -34.7916,-27.6859 -6.2679,-13.8547 0.9976,-23.7969 5.8079,-25.1352 14.9039,-4.1465 30.1979,3.3118 38.4168,15.5714 7.9316,11.8309 7.2713,27.1084 3.8244,34.708 4.7548,1.2542 10.298,1.8163 17.3425,0.9934 19.8785,-2.3219 23.7789,-14.7342 23.0331,-19.9276 -0.7452,-5.1949 -4.9148,-8.0512 -6.3088,-8.9134 -1.3945,-0.8627 -1.8197,-1.1611 -1.7022,-1.8022 0.1687,-0.9321 0.8142,-0.8975 2.0029,-0.696 1.636,0.2758 10.438,4.2252 10.8143,13.8139 0.4793,12.1741 -11.1872,25.7922 -31.8445,25.4364 -8.5074,-0.1467 -13.857,-0.9559 -17.721,-2.3939 -0.2857,0.3254 -0.5765,0.6492 -0.8771,0.9697 -12.7708,13.6253 -36.3793,23.2636 -35.378,41.5809 0.364,6.6591 2.6786,24.1942 45.3638,45.4642 34.9666,17.4232 62.9586,12.6287 67.7962,2.0024 6.9101,-15.1808 -14.9602,-43.3969 -51.2732,-47.4666 -13.835,-1.5512 -21.1196,3.8111 -22.9316,5.8079 -1.9079,2.1022 -2.1921,2.197 -2.9042,1.8027 -1.1607,-0.6426 -0.4253,-2.4988 0,-3.6054 1.0839,-2.8215 5.5332,-7.8251 13.1184,-10.314 6.6723,-2.1899 22.9161,-3.3929 42.5606,4.2055 22.0009,8.5108 39.1814,32.1848 34.1353,51.9738"
         style="fill:#808080;fill-opacity:1;fill-rule:nonzero;stroke:none;stroke-width:0.644085"
         id="path3402" />
    </g>
  </g>
</svg>
